<svg width="60" height="60" viewBox="0 0 60 60" fill="none" xmlns="http://www.w3.org/2000/svg">
<g clip-path="url(#clip0)">
<path d="M22.0225 37.3001L37.2975 9.70755C37.5075 9.32755 37.7175 8.95255 37.9075 8.56005C38.08 8.20505 38.225 7.84755 38.32 7.46005C38.52 6.64505 38.465 5.79505 38.155 5.01755C37.8522 4.25261 37.308 3.60743 36.605 3.18005C35.9142 2.76107 35.1009 2.59083 34.3 2.69755C33.5 2.80505 32.7675 3.18255 32.19 3.77255C31.915 4.04755 31.69 4.36005 31.4825 4.69255C31.2525 5.05755 31.045 5.43755 30.835 5.81755L29.87 7.56005L28.9025 5.81505C28.6925 5.43755 28.485 5.05755 28.255 4.69255C28.0529 4.36058 27.8157 4.0513 27.5475 3.77005C26.9841 3.18638 26.2411 2.80871 25.4375 2.69755C24.6375 2.59161 23.8252 2.76182 23.135 3.18005C22.4321 3.60757 21.8879 4.25271 21.585 5.01755C21.2725 5.79505 21.2175 6.64505 21.42 7.46005C21.515 7.84755 21.66 8.20505 21.83 8.56005C22.02 8.95255 22.23 9.32755 22.44 9.70755L25.56 15.3426L13.405 37.2976H5.0725C4.655 37.2976 4.235 37.2976 3.8175 37.3226C3.4375 37.3451 3.0675 37.3926 2.6975 37.5001C1.9225 37.7251 1.2425 38.2001 0.7525 38.8701C0.265 39.5376 0 40.3526 0 41.1901C0 42.0276 0.265 42.8426 0.75 43.5101C1.2425 44.1801 1.92 44.6526 2.6975 44.8801C3.0675 44.9876 3.4375 45.0351 3.8175 45.0576C4.235 45.0826 4.655 45.0826 5.075 45.0826H37.8175C37.86 44.9901 37.965 44.7576 38.0675 44.4076C39.105 40.8676 36.5275 37.2976 32.98 37.2976L22.0225 37.3001ZM7.7825 46.3551L5.8025 50.1051C5.5975 50.4951 5.39 50.8801 5.205 51.2826C5.03365 51.6447 4.89962 52.0233 4.805 52.4126C4.605 53.2501 4.66 54.1226 4.965 54.9201C5.2675 55.7151 5.8 56.3776 6.4825 56.8076C7.1625 57.2376 7.955 57.4126 8.735 57.3001C9.52 57.1901 10.235 56.8051 10.8 56.2001C11.07 55.9126 11.29 55.5951 11.495 55.2551C11.72 54.8801 11.9225 54.4901 12.1275 54.1001L15 48.6601C14.775 48.2851 12.6325 44.9851 7.7825 46.3551ZM59.2475 38.8401C58.7652 38.1874 58.0804 37.7127 57.3 37.4901C56.9345 37.3893 56.5588 37.3297 56.18 37.3126C55.76 37.2876 55.3425 37.2876 54.9225 37.2876H46.62L35.645 17.7501C34.205 19.2618 33.2658 21.1805 32.955 23.2451C32.5531 25.8274 33.034 28.4699 34.32 30.7451L47.505 54.2276C47.715 54.6026 47.9225 54.9776 48.1525 55.3376C48.3625 55.6626 48.5875 55.9701 48.86 56.2476C49.4375 56.8276 50.17 57.1976 50.9725 57.3051C51.7725 57.4101 52.58 57.2451 53.2775 56.8301C53.979 56.4104 54.5241 55.7731 54.83 55.0151C55.1425 54.2476 55.195 53.4101 54.995 52.6051C54.8966 52.2297 54.7584 51.866 54.5825 51.5201C54.395 51.1326 54.1825 50.7626 53.9725 50.3876L50.9325 44.9726H54.9225C55.3425 44.9726 55.76 44.9726 56.18 44.9501C56.56 44.9276 56.93 44.8801 57.3 44.7751C58.0817 44.5523 58.7675 44.0766 59.25 43.4226C59.7388 42.7592 60.0017 41.9565 60 41.1326C60.0017 40.3086 59.7388 39.5059 59.25 38.8426L59.2475 38.8401Z" fill="#F2F2F2"/>
</g>
<defs>
<clipPath id="clip0">
<rect width="60" height="60" rx="5" fill="white"/>
</clipPath>
</defs>
</svg>
