<svg width="16" height="16" viewBox="0 0 16 16" fill="none" xmlns="http://www.w3.org/2000/svg">
<g clip-path="url(#clip0)">
<path d="M15.88 7.99997C15.8415 5.87447 14.086 4.18197 11.9605 4.21847C11.765 4.21847 11.56 4.23447 11.359 4.25247C9.67951 4.49997 8.55951 5.70597 7.93951 6.63247C7.30701 5.70597 6.17951 4.49997 4.51301 4.25247C4.31379 4.23216 4.11375 4.22082 3.91351 4.21847C1.78901 4.18697 0.0390117 5.87697 -0.000488281 7.99997C0.0390117 10.1225 1.78901 11.8125 3.91351 11.7815C4.11401 11.7815 4.31201 11.7655 4.52551 11.7395C6.20551 11.5 7.32501 10.294 7.95301 9.36748C8.58551 10.294 9.70551 11.5 11.3795 11.7475C11.5855 11.7655 11.781 11.7815 11.986 11.7815C14.1005 11.802 15.8405 10.115 15.8795 7.99997H15.88ZM4.32001 10.4015C4.18751 10.4275 4.03401 10.4275 3.90151 10.4275C3.23797 10.4421 2.59556 10.1938 2.11446 9.73656C1.63336 9.27934 1.35263 8.6504 1.33351 7.98697C1.35418 7.32332 1.63603 6.69466 2.11778 6.23773C2.59952 5.7808 3.24219 5.53255 3.90601 5.54697C4.03951 5.54697 4.18751 5.56047 4.32551 5.57297C5.90601 5.80747 6.87301 7.35447 7.20101 7.98697C6.86751 8.62047 5.90151 10.1875 4.32551 10.4015H4.32001ZM8.66651 7.99997C8.99201 7.37997 9.96051 5.81997 11.539 5.58597C11.6745 5.55997 11.8195 5.55997 11.953 5.55997C12.2829 5.54999 12.6114 5.60526 12.9198 5.72261C13.2283 5.83996 13.5105 6.01708 13.7502 6.2438C13.99 6.47052 14.1826 6.74238 14.3171 7.04375C14.4515 7.34513 14.525 7.67009 14.5335 7.99997C14.5118 8.66346 14.2295 9.29165 13.7478 9.74839C13.266 10.2051 12.6237 10.4536 11.96 10.44C11.8217 10.4381 11.6835 10.4294 11.546 10.414C9.97351 10.18 8.99951 8.61997 8.67401 7.99997H8.66651ZM2.80751 8.39348H5.16701V7.61997H2.81301V8.39348H2.80751ZM12.2265 8.39348H13.0205V7.61997H12.2185V6.82547H11.466V7.62747H10.6665V8.39348H11.466V9.17998H12.2345V8.40147L12.2265 8.39348ZM16 4.70597C16 4.90597 15.854 5.04647 15.646 5.04647C15.6009 5.04828 15.5558 5.04103 15.5135 5.02514C15.4712 5.00925 15.4325 4.98505 15.3997 4.95397C15.3669 4.92289 15.3406 4.88555 15.3225 4.84416C15.3043 4.80277 15.2946 4.75816 15.294 4.71297C15.294 4.52547 15.4535 4.36697 15.646 4.36697C15.854 4.36697 16 4.51297 16 4.70547V4.70597ZM15.3935 4.70597C15.3935 4.85397 15.5 4.97397 15.659 4.97397C15.8075 4.97397 15.9145 4.85397 15.9145 4.70597C15.9145 4.55997 15.808 4.43997 15.659 4.43997C15.5005 4.42747 15.3935 4.54647 15.3935 4.70597ZM15.594 4.87997H15.526V4.53397L15.6585 4.52597C15.7185 4.52597 15.7525 4.53398 15.781 4.54648C15.807 4.55998 15.8195 4.58597 15.8195 4.61997C15.8195 4.65847 15.7935 4.68747 15.747 4.69247C15.781 4.70597 15.7935 4.73447 15.807 4.78097L15.825 4.86697H15.747C15.7345 4.85347 15.7345 4.81947 15.7185 4.78097C15.706 4.74697 15.6925 4.73447 15.646 4.73447H15.6145L15.5985 4.87997H15.594ZM15.6065 4.67997H15.646C15.6925 4.67997 15.7135 4.67447 15.7135 4.63247C15.7135 4.59847 15.693 4.58597 15.646 4.58597H15.5985V4.67997H15.6065Z" fill="#00979D"/>
</g>
<defs>
<clipPath id="clip0">
<rect width="16" height="16" fill="white"/>
</clipPath>
</defs>
</svg>
