<svg width="300" height="300" viewBox="0 0 300 300" fill="none" xmlns="http://www.w3.org/2000/svg">
<path d="M262.5 25H75C68.3696 25 62.0107 27.6339 57.3223 32.3223C52.6339 37.0107 50 43.3696 50 50V87.5H25V112.5H50V137.5H25V162.5H50V187.5H25V212.5H50V250C50 256.63 52.6339 262.989 57.3223 267.678C62.0107 272.366 68.3696 275 75 275H262.5C265.815 275 268.995 273.683 271.339 271.339C273.683 268.995 275 265.815 275 262.5V37.5C275 34.1848 273.683 31.0054 271.339 28.6612C268.995 26.317 265.815 25 262.5 25ZM162.5 62.4875C183.1 62.4875 200 79.375 200 99.9875C199.964 109.923 196.002 119.442 188.977 126.468C181.953 133.495 172.436 137.46 162.5 137.5C141.913 137.5 125 120.588 125 99.9875C125 79.375 141.913 62.4875 162.5 62.4875ZM237.5 225H87.5V215.625C87.5 187.887 121.313 159.375 162.5 159.375C203.688 159.375 237.5 187.887 237.5 215.625V225Z" fill="#0091FA"/>
</svg>
