<svg width="195" height="276" viewBox="0 0 195 276" fill="none" xmlns="http://www.w3.org/2000/svg">
<g clip-path="url(#clip0)">
<path d="M37.8809 91.6928V97.246H71.5569V108.353H77.1058V97.246V80.5862H71.5569V91.6928H37.8809Z" fill="#eee"/>
<path d="M83.7686 80.5862V108.353H89.3175V97.246H122.039V91.6928H89.3175V80.5862H83.7686Z" fill="#eee"/>
<path d="M54.5274 97.246V125.012H71.5566V113.906H77.1056V141.672H71.5566V130.566H48.9785V97.246H54.5274Z" fill="#eee"/>
<path d="M83.7686 113.906V141.672H89.3175V130.566H110.017V97.246H104.468V125.012H89.3175V113.906H83.7686Z" fill="#eee"/>
<path d="M131.088 104.23C136.201 104.23 140.346 100.082 140.346 94.9647C140.346 89.8474 136.201 85.6991 131.088 85.6991C125.974 85.6991 121.829 89.8474 121.829 94.9647C121.829 100.082 125.974 104.23 131.088 104.23Z" stroke="#eee" stroke-width="5.26757"/>
<path d="M141.037 154.559C112.464 183.155 66.1444 183.163 37.5804 154.577C9.01631 125.99 9.0241 79.6351 37.5978 51.0392C66.1714 22.4434 112.491 22.4356 141.055 51.0218C169.619 79.6081 169.611 125.963 141.037 154.559Z" stroke="#eee" stroke-width="11.2076"/>
<path d="M132.96 146.475C108.849 170.605 69.7645 170.611 45.6616 146.49C21.5588 122.368 21.5654 83.253 45.6763 59.1234C69.7872 34.9937 108.872 34.9871 132.975 59.1087C157.078 83.2302 157.071 122.346 132.96 146.475Z" stroke="#eee" stroke-width="5.14679"/>
<path d="M156.101 156.115C154.314 158.315 152.415 160.423 150.411 162.428C148.258 164.582 145.987 166.616 143.608 168.519L153.601 178.517L174.383 199.312C177.819 202.75 183.389 202.749 186.826 199.31C190.263 195.872 190.264 190.297 186.828 186.86L166.046 166.065L156.101 156.115Z" fill="#eee"/>
</g>
<defs>
<clipPath id="clip0">
<rect width="195" height="276" fill="white"/>
</clipPath>
</defs>
</svg>
