<svg width="200" height="200" viewBox="0 0 200 200" fill="none" xmlns="http://www.w3.org/2000/svg">
<path d="M100 12.5C51.6797 12.5 12.5 51.6797 12.5 100C12.5 148.32 51.6797 187.5 100 187.5C148.32 187.5 187.5 148.32 187.5 100C187.5 51.6797 148.32 12.5 100 12.5ZM104.355 142.422L104.395 148.613C104.395 149.473 103.691 150.195 102.832 150.195H97.2852C96.4258 150.195 95.7227 149.492 95.7227 148.633V142.5C78.3789 141.211 70.2148 131.328 69.3359 120.586C69.2578 119.668 69.9805 118.887 70.8984 118.887H79.9219C80.6836 118.887 81.3477 119.434 81.4648 120.176C82.4609 126.367 87.2852 130.996 95.9375 132.148V104.277L91.1133 103.047C80.8984 100.605 71.1719 94.2383 71.1719 81.0352C71.1719 66.7969 81.9922 59.1406 95.8203 57.793V51.3477C95.8203 50.4883 96.5234 49.7852 97.3828 49.7852H102.871C103.73 49.7852 104.434 50.4883 104.434 51.3477V57.7344C117.812 59.082 127.852 66.8945 129.023 79.0625C129.121 79.9805 128.398 80.7812 127.461 80.7812H118.691C117.91 80.7812 117.246 80.1953 117.148 79.4336C116.367 73.7305 111.797 69.082 104.355 68.0664V94.2969L109.316 95.4492C121.973 98.5742 130.586 104.629 130.586 118.184C130.586 132.891 119.648 141.094 104.355 142.422ZM83.3203 80.1367C83.3203 85.0977 86.3867 88.9453 92.9883 91.3281C93.9062 91.6992 94.8242 91.9922 95.918 92.3047V68.0859C88.7109 69.0039 83.3203 73.0469 83.3203 80.1367ZM106.074 106.543C105.527 106.426 104.98 106.289 104.355 106.113V132.227C112.676 131.484 118.418 126.914 118.418 119.258C118.418 113.262 115.312 109.355 106.074 106.543Z" fill="#119461"/>
</svg>
