<svg width="124" height="111" viewBox="0 0 124 111" fill="none" xmlns="http://www.w3.org/2000/svg">
<path d="M36.0272 64.3737C39.5119 64.3737 42.8802 64.1469 46.0676 63.7248V28.5284C42.8805 28.1066 39.5119 27.8799 36.0272 27.8799C16.1301 27.8799 0.000305176 35.2499 0.000305176 44.3416V47.9117C0.000305176 57.0031 16.1301 64.3737 36.0272 64.3737Z" fill="#D8AC13"/>
<path d="M36.0272 82.752C39.5119 82.752 42.8802 82.5252 46.0676 82.1038V71.7871C42.8796 72.2089 39.5129 72.4387 36.0272 72.4387C18.6592 72.4387 4.16306 66.8228 0.758012 59.3486C0.262137 60.4373 0.000305176 61.5646 0.000305176 62.7202V66.2903C0.000305176 75.382 16.1301 82.752 36.0272 82.752Z" fill="#D8AC13"/>
<path d="M46.0673 90.9679V90.166C42.8793 90.5878 39.5126 90.8177 36.0269 90.8177C18.6589 90.8177 4.16276 85.2017 0.757707 77.7275C0.261832 78.8159 0 79.9432 0 81.0988V84.6689C0 93.7609 16.1298 101.131 36.0269 101.131C40.006 101.131 43.8331 100.835 47.412 100.291C46.5249 98.4629 46.0673 96.535 46.0673 94.5376V90.9679Z" fill="#D8AC13"/>
<path d="M87.9731 0C68.076 0 51.9462 7.36999 51.9462 16.4617V20.0318C51.9462 29.1235 68.076 36.4935 87.9731 36.4935C107.87 36.4935 124 29.1235 124 20.0318V16.4617C124 7.36999 107.87 0 87.9731 0Z" fill="#D8AC13"/>
<path d="M87.9731 44.5589C70.6051 44.5589 56.1089 38.9433 52.7039 31.4688C52.208 32.5572 51.9462 33.6844 51.9462 34.8403V38.4104C51.9462 47.5021 68.076 54.8721 87.9731 54.8721C107.87 54.8721 124 47.5021 124 38.4104V34.8403C124 33.6844 123.738 32.5572 123.242 31.4688C119.837 38.9433 105.341 44.5589 87.9731 44.5589Z" fill="#D8AC13"/>
<path d="M87.9731 62.9378C70.6051 62.9378 56.1089 57.3219 52.7039 49.8477C52.208 50.9361 51.9462 52.0633 51.9462 53.2193V56.7893C51.9462 65.8814 68.076 73.2513 87.9731 73.2513C107.87 73.2513 124 65.8814 124 56.7893V53.2193C124 52.0633 123.738 50.9361 123.242 49.8477C119.837 57.3222 105.341 62.9378 87.9731 62.9378Z" fill="#D8AC13"/>
<path d="M87.9731 82.3079C70.6051 82.3079 56.1089 76.692 52.7039 69.2178C52.208 70.3065 51.9462 71.4335 51.9462 72.5891V76.1594C51.9462 85.2512 68.076 92.6211 87.9731 92.6211C107.87 92.6211 124 85.2512 124 76.1594V72.5891C124 71.4335 123.738 70.3059 123.242 69.2178C119.837 76.6917 105.341 82.3079 87.9731 82.3079Z" fill="#D8AC13"/>
<path d="M87.9731 100.687C70.6051 100.687 56.1089 95.0712 52.7039 87.597C52.208 88.6857 51.9462 89.8133 51.9462 90.9683V94.5383C51.9462 103.63 68.076 111 87.9731 111C107.87 111 124 103.63 124 94.5383V90.968C124 89.8124 123.738 88.6848 123.242 87.5967C119.837 95.0709 105.341 100.687 87.9731 100.687Z" fill="#D8AC13"/>
</svg>
