<svg width="200" height="200" viewBox="0 0 200 200" fill="none" xmlns="http://www.w3.org/2000/svg">
<path d="M31.25 174.609C31.25 178.066 34.043 180.859 37.5 180.859H93.3594V107.422H31.25V174.609ZM106.641 180.859H162.5C165.957 180.859 168.75 178.066 168.75 174.609V107.422H106.641V180.859ZM171.875 60.5469H143.047C145.703 56.3672 147.266 51.4062 147.266 46.0938C147.266 31.2305 135.176 19.1406 120.312 19.1406C112.227 19.1406 104.941 22.7344 100 28.3984C95.0586 22.7344 87.7734 19.1406 79.6875 19.1406C64.8242 19.1406 52.7344 31.2305 52.7344 46.0938C52.7344 51.4062 54.2773 56.3672 56.9531 60.5469H28.125C24.668 60.5469 21.875 63.3398 21.875 66.7969V94.1406H93.3594V60.5469H106.641V94.1406H178.125V66.7969C178.125 63.3398 175.332 60.5469 171.875 60.5469ZM93.3594 59.7656H79.6875C72.1484 59.7656 66.0156 53.6328 66.0156 46.0938C66.0156 38.5547 72.1484 32.4219 79.6875 32.4219C87.2266 32.4219 93.3594 38.5547 93.3594 46.0938V59.7656ZM120.312 59.7656H106.641V46.0938C106.641 38.5547 112.773 32.4219 120.312 32.4219C127.852 32.4219 133.984 38.5547 133.984 46.0938C133.984 53.6328 127.852 59.7656 120.312 59.7656Z" fill="#E99D0A"/>
</svg>
