<svg width="60" height="60" viewBox="0 0 60 60" fill="none" xmlns="http://www.w3.org/2000/svg">
<path d="M5.625 6.97143V53.0261C5.62531 53.126 5.65511 53.2236 5.71067 53.3067C5.76623 53.3897 5.84507 53.4545 5.9373 53.493C6.02954 53.5314 6.13107 53.5417 6.22915 53.5227C6.32724 53.5036 6.41752 53.456 6.48867 53.3859L30.4688 29.9999L6.48867 6.61167C6.41752 6.54151 6.32724 6.49393 6.22915 6.47488C6.13107 6.45583 6.02954 6.46617 5.9373 6.50459C5.84507 6.54301 5.76623 6.60781 5.71067 6.69086C5.65511 6.77391 5.62531 6.87151 5.625 6.97143Z" fill="#EEEEEE"/>
<path d="M40.5234 20.3907L10.4554 3.82511L10.4366 3.81456C9.91868 3.53331 9.42649 4.23409 9.85071 4.6419L33.4206 27.1794L40.5234 20.3907Z" fill="#EEEEEE"/>
<path d="M9.85306 55.3582C9.42649 55.766 9.91868 56.4668 10.439 56.1855L10.4577 56.175L40.5234 39.6094L33.4206 32.8184L9.85306 55.3582Z" fill="#EEEEEE"/>
<path d="M52.6615 27.0703L44.265 22.446L36.3701 29.9999L44.265 37.5503L52.6615 32.9296C54.9455 31.6675 54.9455 28.3324 52.6615 27.0703Z" fill="#EEEEEE"/>
</svg>
