<svg width="150" height="150" viewBox="0 0 150 150" fill="none" xmlns="http://www.w3.org/2000/svg">
<g clip-path="url(#clip0)">
<path d="M95.6867 54.3134C113.191 71.8356 112.951 99.9281 95.7922 117.182C95.76 117.217 95.7219 117.255 95.6867 117.29L75.9992 136.977C58.635 154.342 30.3843 154.339 13.0227 136.977C-4.34155 119.616 -4.34155 91.3623 13.0227 74.0009L23.8936 63.13C26.7764 60.2472 31.7411 62.1632 31.8899 66.2373C32.0797 71.4292 33.0108 76.6455 34.7288 81.6829C35.3106 83.3885 34.8949 85.2752 33.6205 86.5497L29.7864 90.3837C21.5756 98.5945 21.3181 111.964 29.448 120.255C37.6581 128.628 51.1529 128.677 59.426 120.404L79.1135 100.72C87.3726 92.4606 87.338 79.1112 79.1135 70.8867C78.0292 69.8044 76.937 68.9636 76.0839 68.3762C75.4804 67.9618 74.9821 67.412 74.6287 66.7708C74.2753 66.1296 74.0767 65.4146 74.0487 64.6831C73.9326 61.5872 75.0295 58.3971 77.4758 55.9508L83.644 49.7824C85.2615 48.1649 87.7989 47.9663 89.6744 49.2752C91.8224 50.7751 93.8343 52.461 95.6867 54.3134ZM136.976 13.0218C119.615 -4.34009 91.364 -4.34243 73.9997 13.0218L54.3122 32.7093C54.2771 32.7445 54.239 32.7826 54.2068 32.8177C37.0488 50.0712 36.8082 78.1637 54.3122 95.6859C56.1646 97.5382 58.1764 99.224 60.3243 100.724C62.1998 102.033 64.7375 101.834 66.3547 100.217L72.5229 94.0482C74.9692 91.6019 76.066 88.4118 75.95 85.316C75.922 84.5844 75.7234 83.8694 75.37 83.2282C75.0166 82.587 74.5183 82.0372 73.9148 81.6228C73.0617 81.0354 71.9695 80.1946 70.8852 79.1123C62.6607 70.8878 62.6261 57.5384 70.8852 49.2793L90.5727 29.5948C98.8458 21.3216 112.34 21.3714 120.551 29.7442C128.681 38.0352 128.423 51.4045 120.212 59.6153L116.378 63.4494C115.104 64.7238 114.688 66.6105 115.27 68.3162C116.988 73.3535 117.919 78.5698 118.109 83.7617C118.258 87.8358 123.222 89.7518 126.105 86.869L136.976 75.9981C154.341 58.637 154.341 30.3832 136.976 13.0218Z" fill="#405DE6"/>
</g>
<defs>
<clipPath id="clip0">
<rect width="150" height="150" fill="white"/>
</clipPath>
</defs>
</svg>
