<svg width="512" height="512" viewBox="0 0 512 512" fill="none" xmlns="http://www.w3.org/2000/svg">
<g clip-path="url(#clip0)">
<path d="M306.19 425.404H134.983C135.876 430.28 136.368 435.295 136.368 440.425C136.368 445.555 135.876 450.57 134.983 455.445H306.191C304.762 450.685 303.984 445.645 303.984 440.425C303.984 435.205 304.762 430.165 306.19 425.404Z" fill="#0D967D"/>
<path d="M424.858 281.159H332.261C332.899 284.419 333.242 287.783 333.242 291.227C333.242 298.298 331.825 305.041 329.274 311.2H424.858C456.343 311.2 481.959 336.816 481.959 368.302C481.959 399.788 456.343 425.403 424.858 425.403H406.488C407.917 430.164 408.695 435.204 408.695 440.424C408.695 445.644 407.917 450.684 406.488 455.444H424.858C472.908 455.444 512 416.352 512 368.301C512 320.251 472.908 281.159 424.858 281.159Z" fill="#0D967D"/>
<path d="M229.512 281.159H139.791C121.609 281.159 106.817 266.366 106.817 248.185C106.817 230.018 121.596 215.237 139.763 215.237H392.693C384.141 205.957 375.245 195.798 366.716 185.196H139.763C105.032 185.196 76.776 213.453 76.776 248.185C76.776 282.931 105.045 311.2 139.791 311.2H232.499C229.948 305.041 228.531 298.297 228.531 291.227C228.531 287.784 228.874 284.419 229.512 281.159Z" fill="#0D967D"/>
<path d="M106.323 440.538C106.411 411.188 82.6804 387.323 53.3194 387.235C23.9584 387.147 0.0852513 410.869 -0.00280016 440.219C-0.0908516 469.57 23.6396 493.434 53.0006 493.522C82.3615 493.61 106.235 469.888 106.323 440.538Z" fill="#0D967D"/>
<path d="M349.267 90.4538C349.267 111.704 374.487 151.527 416.727 196.982C418.347 198.724 420.295 198.984 421.313 198.984C422.331 198.984 424.28 198.724 425.9 196.981C468.141 151.527 493.359 111.704 493.359 90.4528C493.359 50.7404 461.04 18.4312 421.314 18.4312C381.586 18.4322 349.267 50.7414 349.267 90.4538ZM421.314 78.7668C429.707 78.7668 435.922 85.6262 436.285 93.7383C436.648 101.823 429.145 108.71 421.314 108.71C412.92 108.71 406.706 101.85 406.342 93.7383C405.981 85.6522 413.483 78.7668 421.314 78.7668Z" fill="#0D967D"/>
<path d="M378.654 440.425C378.654 428.121 368.644 418.11 356.34 418.11C344.036 418.11 334.025 428.121 334.025 440.425C334.025 452.729 344.036 462.738 356.34 462.738C368.644 462.738 378.654 452.729 378.654 440.425Z" fill="#0D967D"/>
<path d="M303.201 291.228C303.201 278.924 293.19 268.914 280.887 268.914C268.583 268.914 258.573 278.924 258.573 291.228C258.573 303.531 268.583 313.542 280.887 313.542C293.19 313.542 303.201 303.531 303.201 291.228Z" fill="#0D967D"/>
</g>
<defs>
<clipPath id="clip0">
<rect width="512" height="512" fill="white"/>
</clipPath>
</defs>
</svg>
