<svg width="1024" height="1024" viewBox="0 0 1024 1024" fill="none" xmlns="http://www.w3.org/2000/svg">
<path d="M852 64H172C154.3 64 140 78.3 140 96V756C140 773.7 154.3 788 172 788H852C869.7 788 884 773.7 884 756V96C884 78.3 869.7 64 852 64ZM300 328C300 294.9 326.9 268 360 268C393.1 268 420 294.9 420 328C420 361.1 393.1 388 360 388C326.9 388 300 361.1 300 328ZM672 576C672 580.4 668.4 584 664 584H360C355.6 584 352 580.4 352 576V516C352 511.6 355.6 508 360 508H664C668.4 508 672 511.6 672 516V576ZM664 388C630.9 388 604 361.1 604 328C604 294.9 630.9 268 664 268C697.1 268 724 294.9 724 328C724 361.1 697.1 388 664 388ZM799 864H225C211.2 864 200 878.3 200 896V952C200 956.4 202.8 960 206.2 960H817.7C821.1 960 823.9 956.4 823.9 952V896C824 878.3 812.8 864 799 864V864Z" fill="#214687"/>
</svg>
