<?xml version="1.0" encoding="utf-8"?>
<!-- Generator: Adobe Illustrator 16.0.0, SVG Export Plug-In . SVG Version: 6.00 Build 0)  -->
<!DOCTYPE svg PUBLIC "-//W3C//DTD SVG 1.1//EN" "http://www.w3.org/Graphics/SVG/1.1/DTD/svg11.dtd">
<svg version="1.1" xmlns="http://www.w3.org/2000/svg" xmlns:xlink="http://www.w3.org/1999/xlink" x="0px" y="0px" width="2000px"
	 height="2000px" viewBox="0 0 2000 2000" enable-background="new 0 0 2000 2000" xml:space="preserve">
<g id="Rounded_Rectangle_1_1_" enable-background="new    ">
	<g id="Rounded_Rectangle_1">
		<g>
			<path fill-rule="evenodd" clip-rule="evenodd" fill="#154A8F" d="M1744.293,1369.225h-112.449
				c-18.538,0-33.566,15.023-33.566,33.556v251.664c0,18.532,15.028,33.556,33.566,33.556h112.449
				c18.539,0,33.566-15.023,33.566-33.556V1402.78C1777.859,1384.248,1762.832,1369.225,1744.293,1369.225z"/>
		</g>
	</g>
</g>
<g id="Rounded_Rectangle_1_copy_1_" enable-background="new    ">
	<g id="Rounded_Rectangle_1_copy">
		<g>
			<path fill-rule="evenodd" clip-rule="evenodd" fill="#154A8F" d="M383.156,1369.225H270.707
				c-18.539,0-33.567,15.023-33.567,33.556v251.664c0,18.532,15.028,33.556,33.567,33.556h112.449
				c18.539,0,33.567-15.023,33.567-33.556V1402.78C416.723,1384.248,401.694,1369.225,383.156,1369.225z"/>
		</g>
	</g>
</g>
<g id="Rounded_Rectangle_3_1_" enable-background="new    ">
	<g id="Rounded_Rectangle_3">
		<g>
			<path fill-rule="evenodd" clip-rule="evenodd" fill="#FFFFFF" d="M230.427,1448.08h-6.713c-3.708,0-6.713,3.004-6.713,6.711
				V1612.5c0,3.707,3.006,6.712,6.713,6.712h6.713c3.708,0,6.713-3.005,6.713-6.712v-157.709
				C237.14,1451.084,234.134,1448.08,230.427,1448.08z"/>
		</g>
	</g>
</g>
<g id="Rounded_Rectangle_3_copy_1_" enable-background="new    ">
	<g id="Rounded_Rectangle_3_copy">
		<g>
			<path fill-rule="evenodd" clip-rule="evenodd" fill="#FFFFFF" d="M1791.287,1448.08h-6.714c-3.708,0-6.714,3.004-6.714,6.711
				V1612.5c0,3.707,3.006,6.712,6.714,6.712h6.714c3.707,0,6.713-3.005,6.713-6.712v-157.709
				C1798,1451.084,1794.994,1448.08,1791.287,1448.08z"/>
		</g>
	</g>
</g>
<g id="Shape_2_1_" enable-background="new    ">
	<g id="Shape_2">
		<g>
			<polygon fill-rule="evenodd" clip-rule="evenodd" fill="#4870B7" points="1111.557,961.488 1111.557,745.104 905.789,745.104 
				905.789,961.488 463.699,1397.731 463.699,1661.156 1556.312,1661.156 1556.312,1397.731 			"/>
		</g>
	</g>
</g>
<g id="Rounded_Rectangle_2_1_" enable-background="new    ">
	<g id="Rounded_Rectangle_2">
		<g>
			<path fill-rule="evenodd" clip-rule="evenodd" fill="#164991" d="M1124.984,1218.226H890.016
				c-18.538,0-33.566,15.023-33.566,33.556v234.887c0,18.532,15.028,33.556,33.566,33.556h234.969
				c18.538,0,33.566-15.023,33.566-33.556v-234.887C1158.551,1233.249,1143.522,1218.226,1124.984,1218.226z"/>
		</g>
	</g>
</g>
<g id="Shape_3_copy_1_" enable-background="new    ">
	<g id="Shape_3_copy">
		<g>
			<path fill-rule="evenodd" clip-rule="evenodd" fill="#FFFFFF" d="M574.487,611.979l-35.245,133.105h33.566l43.637-133.105
				l110.771-79.049h181.261v-29.431H703.72L574.487,611.979z M1438.834,611.979l-129.232-108.479h-204.758v29.431h181.262
				l110.771,79.049l43.637,133.105h33.567L1438.834,611.979z"/>
		</g>
	</g>
</g>
<g id="Shape_1_1_" enable-background="new    ">
	<g id="Shape_1">
		<g>
			<polygon fill-rule="evenodd" clip-rule="evenodd" fill="#4870B7" points="1514.359,584.031 1232.398,373.006 1013.467,373.006 
				784.28,373.006 498.962,587.387 475.465,745.842 552.669,745.842 594.627,612.553 718.825,518.599 905.604,518.599 
				905.604,745.842 1111.149,745.842 1111.149,521.021 1302.727,521.021 1420.373,614.231 1460.652,745.842 1537.856,745.842 			"/>
		</g>
	</g>
</g>
</svg>
