<svg width="512" height="512" viewBox="0 0 512 512" fill="none" xmlns="http://www.w3.org/2000/svg">
<g clip-path="url(#clip0)">
<path d="M15 512C11.388 512 7.871 510.694 5.12 508.286C1.866 505.438 0 501.324 0 497V79.267C0 71.749 5.565 65.392 13.018 64.399L495.018 0.13199C499.305 -0.44201 503.628 0.86599 506.881 3.71399C510.134 6.56299 512 10.677 512 15.001V432.734C512 440.252 506.435 446.609 498.982 447.602L16.982 511.869C16.321 511.957 15.659 512 15 512Z" fill="#0061A8"/>
<path d="M506.881 3.715C503.628 0.866997 499.304 -0.441003 495.018 0.132997L256 32.001V479.999L498.982 447.601C506.434 446.608 512 440.25 512 432.733V15.001C512 10.677 510.134 6.563 506.881 3.715Z" fill="#1F4B7F"/>
<path d="M183.7 238.867H239.933C247.266 238.867 253.523 233.566 254.729 226.333L270.796 129.934C272.321 120.791 265.256 112.468 256 112.468H199.767C192.434 112.468 186.177 117.769 184.971 125.002L168.905 221.401C167.38 230.545 174.444 238.867 183.7 238.867ZM212.474 142.467H238.293L227.226 208.866H201.407L212.474 142.467Z" fill="#F5FAFA"/>
<path d="M191.452 273.134H135.219C127.886 273.134 121.629 278.435 120.423 285.668L104.356 382.067C102.831 391.21 109.896 399.533 119.152 399.533H175.385C182.718 399.533 188.975 394.232 190.181 386.999L206.247 290.6C207.772 281.456 200.708 273.134 191.452 273.134ZM162.679 369.534H136.86L147.927 303.135H173.746L162.679 369.534Z" fill="#F5FAFA"/>
<path d="M384.549 112.467H384.533C377.2 112.467 370.943 117.768 369.737 125.001L353.671 221.4C352.147 230.544 359.211 238.866 368.467 238.866H424.7C432.033 238.866 438.292 233.563 439.496 226.329C439.496 226.329 442.741 206.839 446.324 185.379C452.673 147.224 423.239 112.467 384.549 112.467ZM416.733 180.447C414.949 191.127 413.25 201.32 411.992 208.867H386.174L396.841 144.865C410.152 150.278 419.38 164.535 416.733 180.447Z" fill="#E1EBF0"/>
<path d="M142.263 226.332L150.296 178.133C151.82 168.989 144.756 160.667 135.5 160.667H105.007L108.041 142.467H143.534C151.818 142.467 158.534 135.751 158.534 127.467C158.534 119.183 151.818 112.467 143.534 112.467H95.334C88.001 112.467 81.744 117.768 80.538 125.001L72.504 173.201C70.979 182.344 78.044 190.667 87.3 190.667H117.793L114.76 208.866H79.267C70.983 208.866 64.267 215.582 64.267 223.866C64.267 232.15 70.983 238.866 79.267 238.866H127.467C134.799 238.867 141.057 233.566 142.263 226.332Z" fill="#F5FAFA"/>
<path d="M306.385 273.338C298.213 271.981 290.485 277.496 289.123 285.668L275.145 369.533H249.326L262.481 290.599C263.843 282.427 258.323 274.7 250.151 273.337C241.979 271.98 234.251 277.495 232.889 285.667L216.823 382.066C215.299 391.21 222.363 399.532 231.619 399.532H287.852C295.185 399.532 301.442 394.231 302.648 386.998L318.714 290.599C320.077 282.428 314.557 274.701 306.385 273.338Z" fill="#F5FAFA"/>
<path d="M320.267 208.867H313.874L327.03 129.933C328.392 121.762 322.872 114.034 314.7 112.671C306.533 111.314 298.8 116.829 297.438 125.001L281.371 221.4C279.846 230.543 286.911 238.866 296.167 238.866H320.267C328.551 238.866 335.267 232.15 335.267 223.866C335.267 215.582 328.551 208.867 320.267 208.867Z" fill="#E1EBF0"/>
<path d="M400.319 273.134H352.119C343.835 273.134 337.119 279.85 337.119 288.134C337.119 296.418 343.835 303.134 352.119 303.134H358.512L345.356 382.068C343.994 390.239 349.514 397.967 357.686 399.33C369.333 401.265 374.249 391.195 374.948 387L388.926 303.135H400.319C408.603 303.135 415.319 296.419 415.319 288.135C415.319 279.851 408.603 273.134 400.319 273.134Z" fill="#E1EBF0"/>
<path d="M256 112.467V218.706L270.796 129.932C272.32 120.79 265.256 112.467 256 112.467Z" fill="#E1EBF0"/>
<path d="M262.481 290.6C263.482 284.593 260.756 278.835 256 275.66V329.489L262.481 290.6Z" fill="#E1EBF0"/>
<path d="M302.648 386.999L318.714 290.6C320.076 282.428 314.556 274.701 306.384 273.338C298.212 271.981 290.484 277.496 289.122 285.668L275.144 369.533H256V399.533H287.853C295.185 399.534 301.443 394.233 302.648 386.999Z" fill="#E1EBF0"/>
</g>
<defs>
<clipPath id="clip0">
<rect width="512" height="512" fill="white"/>
</clipPath>
</defs>
</svg>
