<svg width="150" height="150" viewBox="0 0 150 150" fill="none" xmlns="http://www.w3.org/2000/svg">
<path d="M131.25 31.25C124.312 29.0625 116.688 28.125 109.375 28.125C97.1875 28.125 84.0625 30.625 75 37.5C65.9375 30.625 52.8125 28.125 40.625 28.125C28.4375 28.125 15.3125 30.625 6.25 37.5V129.062C6.25 130.625 7.8125 132.188 9.375 132.188C10 132.188 10.3125 131.875 10.9375 131.875C19.375 127.812 31.5625 125 40.625 125C52.8125 125 65.9375 127.5 75 134.375C83.4375 129.062 98.75 125 109.375 125C119.688 125 130.312 126.875 139.062 131.562C139.688 131.875 140 131.875 140.625 131.875C142.188 131.875 143.75 130.312 143.75 128.75V37.5C140 34.6875 135.938 32.8125 131.25 31.25ZM131.25 115.625C124.375 113.438 116.875 112.5 109.375 112.5C98.75 112.5 83.4375 116.562 75 121.875V50C83.4375 44.6875 98.75 40.625 109.375 40.625C116.875 40.625 124.375 41.5625 131.25 43.75V115.625Z" fill="#6036B9"/>
<path d="M109.375 65.625C114.875 65.625 120.188 66.1875 125 67.25V57.75C120.062 56.8125 114.75 56.25 109.375 56.25C98.75 56.25 89.125 58.0625 81.25 61.4375V71.8125C88.3125 67.8125 98.125 65.625 109.375 65.625ZM81.25 78.0625V88.4375C88.3125 84.4375 98.125 82.25 109.375 82.25C114.875 82.25 120.188 82.8125 125 83.875V74.375C120.062 73.4375 114.75 72.875 109.375 72.875C98.75 72.875 89.125 74.75 81.25 78.0625ZM109.375 89.5625C98.75 89.5625 89.125 91.375 81.25 94.75V105.125C88.3125 101.125 98.125 98.9375 109.375 98.9375C114.875 98.9375 120.188 99.5 125 100.563V91.0625C120.062 90.0625 114.75 89.5625 109.375 89.5625Z" fill="#6036B9"/>
</svg>
