<svg width="180" height="180" viewBox="0 0 180 180" fill="none" xmlns="http://www.w3.org/2000/svg">
<path d="M55.17 25.1371C61.3078 20.4887 68.8007 17.9816 76.5 18.0001C78.66 18.0001 80.379 19.1251 81.378 19.8991C82.494 20.7811 83.538 21.9061 84.474 23.0311C85.1377 23.8372 85.5004 24.849 85.5 25.8931V58.5001H75.735C74.6735 55.4976 72.5847 52.9671 69.8378 51.3558C67.091 49.7444 63.8629 49.156 60.7242 49.6945C57.5855 50.233 54.7382 51.8638 52.6855 54.2986C50.6329 56.7334 49.5071 59.8155 49.5071 63.0001C49.5071 66.1847 50.6329 69.2668 52.6855 71.7016C54.7382 74.1364 57.5855 75.7672 60.7242 76.3057C63.8629 76.8442 67.091 76.2558 69.8378 74.6444C72.5847 73.0331 74.6735 70.5026 75.735 67.5001H85.5V152.235C85.5004 152.901 85.3529 153.559 85.0681 154.162C84.7833 154.764 84.3683 155.296 83.853 155.718C79.695 159.12 74.133 162 67.5 162C56.826 162 48.879 156.618 43.74 150.183C40.0478 145.598 37.519 140.188 36.369 134.415C32.8723 133.483 29.6303 131.776 26.883 129.42C21.915 125.163 18 118.26 18 108C18 102.987 18.333 98.4601 19.08 94.5001H47.25C52.974 94.5001 57.69 98.7751 58.41 104.301C55.417 105.384 52.903 107.49 51.3119 110.247C49.7207 113.003 49.1548 116.234 49.714 119.367C50.2732 122.501 51.9216 125.336 54.3681 127.372C56.8146 129.408 59.9018 130.514 63.0847 130.495C66.2676 130.476 69.3414 129.333 71.7634 127.268C74.1854 125.203 75.7997 122.348 76.3214 119.208C76.8432 116.068 76.2387 112.845 74.6147 110.108C72.9907 107.37 70.4517 105.294 67.446 104.247C67.0667 99.1504 64.7742 94.3857 61.0285 90.9087C57.2827 87.4317 52.3608 85.4996 47.25 85.5001H21.969C23.346 82.8181 25.191 80.5501 27.594 78.9391C28.2018 78.5367 28.8397 78.1817 29.502 77.8771C26.946 70.3891 27.612 61.6231 30.078 54.7381C31.653 50.3101 34.155 46.1251 37.593 43.3351C39.861 41.4901 42.561 40.2751 45.513 40.0411C46.809 33.8941 50.454 28.8091 55.179 25.1371H55.17ZM94.5 130.5H101.25C106.621 130.5 111.771 128.367 115.569 124.569C119.367 120.771 121.5 115.621 121.5 110.25V93.7351C124.502 92.6736 127.033 90.5848 128.644 87.8379C130.256 85.0911 130.844 81.863 130.306 78.7243C129.767 75.5856 128.136 72.7383 125.701 70.6856C123.267 68.633 120.185 67.5072 117 67.5072C113.815 67.5072 110.733 68.633 108.299 70.6856C105.864 72.7383 104.233 75.5856 103.694 78.7243C103.156 81.863 103.744 85.0911 105.356 87.8379C106.967 90.5848 109.498 92.6736 112.5 93.7351V110.25C112.5 116.46 107.46 121.5 101.25 121.5H94.5V25.8931C94.4996 24.849 94.8623 23.8372 95.526 23.0311C96.453 21.9061 97.506 20.7811 98.622 19.8991C99.612 19.1251 101.331 18.0001 103.5 18.0001C111.199 17.9816 118.692 20.4887 124.83 25.1371C129.555 28.8091 133.2 33.8941 134.487 40.0411C137.439 40.2661 140.139 41.4901 142.407 43.3351C145.845 46.1251 148.347 50.3101 149.922 54.7381C152.388 61.6231 153.054 70.3981 150.498 77.8681C151.146 78.1741 151.785 78.5341 152.406 78.9481C154.881 80.5951 156.762 82.9531 158.148 85.7341C160.875 91.1791 162 98.7751 162 108C162 118.269 158.085 125.163 153.117 129.42C150.37 131.776 147.128 133.483 143.631 134.415C142.731 139.437 140.211 145.251 136.26 150.183C131.13 156.618 123.174 162 112.5 162C105.876 162 100.305 159.12 96.156 155.718C95.6391 155.297 95.2224 154.765 94.936 154.163C94.6496 153.561 94.5006 152.902 94.5 152.235V130.5ZM63 58.5001C61.8065 58.5001 60.6619 58.9742 59.818 59.8181C58.9741 60.662 58.5 61.8066 58.5 63.0001C58.5 64.1936 58.9741 65.3382 59.818 66.1821C60.6619 67.026 61.8065 67.5001 63 67.5001C64.1935 67.5001 65.3381 67.026 66.182 66.1821C67.0259 65.3382 67.5 64.1936 67.5 63.0001C67.5 61.8066 67.0259 60.662 66.182 59.8181C65.3381 58.9742 64.1935 58.5001 63 58.5001ZM63 112.5C61.8065 112.5 60.6619 112.974 59.818 113.818C58.9741 114.662 58.5 115.807 58.5 117C58.5 118.194 58.9741 119.338 59.818 120.182C60.6619 121.026 61.8065 121.5 63 121.5C64.1935 121.5 65.3381 121.026 66.182 120.182C67.0259 119.338 67.5 118.194 67.5 117C67.5 115.807 67.0259 114.662 66.182 113.818C65.3381 112.974 64.1935 112.5 63 112.5ZM117 85.5001C118.193 85.5001 119.338 85.026 120.182 84.1821C121.026 83.3382 121.5 82.1936 121.5 81.0001C121.5 79.8066 121.026 78.662 120.182 77.8181C119.338 76.9742 118.193 76.5001 117 76.5001C115.807 76.5001 114.662 76.9742 113.818 77.8181C112.974 78.662 112.5 79.8066 112.5 81.0001C112.5 82.1936 112.974 83.3382 113.818 84.1821C114.662 85.026 115.807 85.5001 117 85.5001Z" fill="#436BB9"/>
</svg>
