<svg width="180" height="180" viewBox="0 0 180 180" fill="none" xmlns="http://www.w3.org/2000/svg">
<path d="M112.5 134.999C118.763 139.717 126.563 142.507 135 142.507C143.115 142.521 151.014 139.891 157.5 135.014V159.359C157.502 160.322 157.257 161.27 156.787 162.111C156.318 162.952 155.641 163.658 154.821 164.163C154 164.667 153.064 164.952 152.102 164.991C151.14 165.03 150.183 164.821 149.325 164.384L148.65 163.972L135 154.432L121.35 163.972C120.562 164.522 119.645 164.862 118.689 164.957C117.732 165.053 116.767 164.901 115.885 164.518C115.004 164.134 114.235 163.531 113.653 162.766C113.071 162.001 112.695 161.099 112.56 160.147L112.508 159.359L112.5 135.007V134.999ZM144.375 22.5294C149.627 22.5292 154.682 24.5326 158.507 28.1311C162.333 31.7296 164.642 36.6521 164.963 41.8944L165 43.1544L165.008 82.4994C161.966 78.4501 158.14 75.0551 153.758 72.5169L153.75 43.1544C153.751 40.8335 152.891 38.5947 151.337 36.8712C149.782 35.1477 147.644 34.0621 145.335 33.8244L144.375 33.7794H35.625C33.3041 33.7784 31.0652 34.6383 29.3418 36.1927C27.6183 37.7472 26.5327 39.8857 26.295 42.1944L26.25 43.1544V114.404C26.25 119.257 29.94 123.254 34.665 123.727L35.625 123.779H102.525C103.275 125.069 104.1 126.314 105 127.499V135.029H35.625C30.3716 135.03 25.3162 133.025 21.4903 129.425C17.6645 125.825 15.3565 120.901 15.0375 115.657L15 114.404V43.1544C14.9997 37.9023 17.0032 32.8479 20.6017 29.0222C24.2002 25.1965 29.1227 22.8878 34.365 22.5669L35.625 22.5294H144.375ZM135 74.9994C142.957 74.9994 150.587 78.1601 156.213 83.7862C161.839 89.4123 165 97.0429 165 104.999C165 112.956 161.839 120.587 156.213 126.213C150.587 131.839 142.957 134.999 135 134.999C127.044 134.999 119.413 131.839 113.787 126.213C108.161 120.587 105 112.956 105 104.999C105 97.0429 108.161 89.4123 113.787 83.7862C119.413 78.1601 127.044 74.9994 135 74.9994ZM84.375 93.7494C85.8002 93.7498 87.1721 94.2912 88.2134 95.2642C89.2548 96.2372 89.8881 97.5691 89.9852 98.991C90.0823 100.413 89.6361 101.819 88.7368 102.924C87.8374 104.03 86.5519 104.753 85.14 104.947L84.375 104.999H50.625C49.1998 104.999 47.8279 104.458 46.7866 103.485C45.7452 102.512 45.1119 101.18 45.0148 99.7578C44.9177 98.3359 45.3639 96.9302 46.2632 95.8247C47.1626 94.7191 48.4481 93.9962 49.86 93.8019L50.625 93.7494H84.375ZM129.375 52.4994C130.8 52.4999 132.172 53.0412 133.213 54.0142C134.255 54.9872 134.888 56.3192 134.985 57.741C135.082 59.1629 134.636 60.5686 133.737 61.6742C132.837 62.7797 131.552 63.5027 130.14 63.6969L129.375 63.7494H50.625C49.1998 63.749 47.8279 63.2076 46.7866 62.2346C45.7452 61.2617 45.1119 59.9297 45.0148 58.5078C44.9177 57.086 45.3639 55.6802 46.2632 54.5747C47.1626 53.4691 48.4481 52.7462 49.86 52.5519L50.625 52.4994H129.375Z" fill="#E4B241"/>
</svg>
