<svg width="140" height="140" viewBox="0 0 140 140" fill="none" xmlns="http://www.w3.org/2000/svg">
<path d="M69.9998 128.333C102.216 128.333 128.333 102.217 128.333 70C128.333 37.7834 102.216 11.6667 69.9998 11.6667C37.7832 11.6667 11.6665 37.7834 11.6665 70C11.6665 102.217 37.7832 128.333 69.9998 128.333Z" fill="#00ACC1"/>
<path d="M70.0002 116.667C95.7734 116.667 116.667 95.7733 116.667 70C116.667 44.2267 95.7734 23.3333 70.0002 23.3333C44.2269 23.3333 23.3335 44.2267 23.3335 70C23.3335 95.7733 44.2269 116.667 70.0002 116.667Z" fill="#EEEEEE"/>
<path d="M67.0835 32.0833H72.9168V70H67.0835V32.0833Z" fill="black"/>
<path d="M91.2472 86.4909L86.5076 91.2334L67.5376 72.2634L72.2801 67.518L91.2472 86.4909Z" fill="black"/>
<path d="M69.9998 75.8334C73.2215 75.8334 75.8332 73.2217 75.8332 70C75.8332 66.7784 73.2215 64.1667 69.9998 64.1667C66.7782 64.1667 64.1665 66.7784 64.1665 70C64.1665 73.2217 66.7782 75.8334 69.9998 75.8334Z" fill="black"/>
<path d="M70.0002 72.9166C71.611 72.9166 72.9168 71.6108 72.9168 70C72.9168 68.3891 71.611 67.0833 70.0002 67.0833C68.3893 67.0833 67.0835 68.3891 67.0835 70C67.0835 71.6108 68.3893 72.9166 70.0002 72.9166Z" fill="#00ACC1"/>
</svg>
