<svg width="60" height="60" fill="none" xmlns="http://www.w3.org/2000/svg"><g clip-path="url(#clip0)"><path d="M22.023 37.3L37.297 9.708c.21-.38.42-.755.61-1.148.173-.355.318-.712.413-1.1a4 4 0 00-.165-2.442 3.777 3.777 0 00-1.55-1.838 3.543 3.543 0 00-2.305-.482 3.62 3.62 0 00-2.11 1.075c-.275.275-.5.587-.707.92-.23.365-.438.745-.648 1.125L29.87 7.56l-.968-1.745c-.21-.377-.417-.757-.647-1.122a5.423 5.423 0 00-.707-.923 3.622 3.622 0 00-2.11-1.072 3.545 3.545 0 00-2.303.482 3.78 3.78 0 00-1.55 1.838 3.966 3.966 0 00-.165 2.442c.095.388.24.745.41 1.1.19.393.4.768.61 1.148l3.12 5.635-12.155 21.955H5.073c-.418 0-.838 0-1.256.025-.38.022-.75.07-1.12.177-.774.225-1.455.7-1.945 1.37a3.953 3.953 0 00-.002 4.64 3.692 3.692 0 001.947 1.37c.37.108.74.155 1.12.178.418.025.838.025 1.258.025h32.742a4.72 4.72 0 00.25-.675c1.038-3.54-1.54-7.11-5.087-7.11l-10.957.002zm-14.24 9.055l-1.98 3.75c-.205.39-.413.775-.598 1.178a5.93 5.93 0 00-.4 1.13 4.25 4.25 0 00.16 2.507 3.823 3.823 0 001.518 1.888c.68.43 1.472.605 2.252.492.785-.11 1.5-.495 2.065-1.1.27-.287.49-.605.695-.945.225-.375.428-.765.633-1.155L15 48.66c-.225-.375-2.367-3.675-7.218-2.305zm51.465-7.515a3.675 3.675 0 00-1.948-1.35c-.365-.1-.741-.16-1.12-.177-.42-.025-.837-.025-1.258-.025H46.62L35.645 17.75a10.16 10.16 0 00-2.69 5.495 11.613 11.613 0 001.365 7.5l13.185 23.483c.21.375.417.75.648 1.11.21.325.434.632.707.91.578.58 1.31.95 2.112 1.057.8.105 1.608-.06 2.306-.475a3.75 3.75 0 001.552-1.815 3.882 3.882 0 00.165-2.41 5.432 5.432 0 00-.412-1.085c-.188-.387-.4-.757-.61-1.132l-3.04-5.415h3.99c.42 0 .837 0 1.257-.023.38-.022.75-.07 1.12-.175a3.675 3.675 0 001.95-1.352 3.847 3.847 0 00.75-2.29 3.847 3.847 0 00-.75-2.29l-.002-.003z" fill="#F2F2F2"/></g><defs><clipPath id="clip0"><rect width="60" height="60" rx="5" fill="#fff"/></clipPath></defs></svg>