<svg width="16" height="16" fill="none" xmlns="http://www.w3.org/2000/svg"><g clip-path="url(#clip0)"><path d="M15.88 8a3.854 3.854 0 00-3.92-3.782c-.195 0-.4.016-.601.034-1.68.248-2.8 1.454-3.42 2.38-.632-.926-1.76-2.132-3.426-2.38-.2-.02-.4-.031-.6-.034A3.855 3.855 0 000 8a3.856 3.856 0 003.914 3.781c.2 0 .398-.016.612-.042 1.68-.239 2.799-1.445 3.427-2.372.633.927 1.753 2.133 3.426 2.38.207.018.402.034.607.034A3.856 3.856 0 0015.879 8h.001zM4.32 10.402c-.132.026-.286.026-.418.026a2.514 2.514 0 01-2.568-2.441 2.519 2.519 0 012.572-2.44c.134 0 .282.013.42.026 1.58.234 2.547 1.781 2.875 2.414-.333.633-1.3 2.2-2.875 2.415H4.32zM8.667 8c.325-.62 1.294-2.18 2.872-2.414.136-.026.28-.026.414-.026A2.505 2.505 0 0114.533 8a2.523 2.523 0 01-2.573 2.44 4.244 4.244 0 01-.414-.026C9.974 10.18 9 8.62 8.674 8h-.007zm-5.86.393h2.36V7.62H2.813v.773h-.005zm9.42 0h.793V7.62h-.801v-.795h-.753v.802h-.8v.766h.8v.787h.769v-.779l-.008-.008zM16 4.706c0 .2-.146.34-.354.34a.338.338 0 01-.352-.333c0-.188.16-.346.352-.346.208 0 .354.146.354.338v.001zm-.607 0a.26.26 0 00.266.268c.148 0 .255-.12.255-.268 0-.146-.106-.266-.255-.266-.159-.013-.266.106-.266.266zm.201.174h-.068v-.346l.133-.008c.06 0 .093.008.122.02.026.014.038.04.038.074 0 .038-.026.067-.072.072.034.014.046.042.06.089l.018.086h-.078c-.012-.014-.012-.048-.028-.086-.013-.034-.026-.047-.073-.047h-.032l-.016.146h-.004zm.013-.2h.039c.046 0 .067-.006.067-.048 0-.034-.02-.046-.067-.046h-.048v.094h.008z" fill="#00979D"/></g><defs><clipPath id="clip0"><path fill="#fff" d="M0 0h16v16H0z"/></clipPath></defs></svg>