<svg width="180" height="180" fill="none" xmlns="http://www.w3.org/2000/svg"><path d="M55.17 25.137A35.19 35.19 0 0176.5 18c2.16 0 3.879 1.125 4.878 1.9 1.116.881 2.16 2.006 3.096 3.131a4.5 4.5 0 011.026 2.862V58.5h-9.765a13.5 13.5 0 100 9H85.5v84.735a4.506 4.506 0 01-1.647 3.483C79.695 159.12 74.133 162 67.5 162c-10.674 0-18.621-5.382-23.76-11.817a36.515 36.515 0 01-7.371-15.768 24.11 24.11 0 01-9.486-4.995C21.915 125.163 18 118.26 18 108c0-5.013.333-9.54 1.08-13.5h28.17c5.724 0 10.44 4.275 11.16 9.801a13.498 13.498 0 00-8.696 15.066 13.499 13.499 0 1024.9-9.259 13.498 13.498 0 00-7.168-5.861A20.25 20.25 0 0047.25 85.5H21.969c1.377-2.682 3.222-4.95 5.625-6.56a14.217 14.217 0 011.908-1.063c-2.556-7.488-1.89-16.254.576-23.139 1.575-4.428 4.077-8.613 7.515-11.403 2.268-1.845 4.968-3.06 7.92-3.294 1.296-6.147 4.941-11.232 9.666-14.904h-.009zM94.5 130.5h6.75a20.249 20.249 0 0020.25-20.25V93.735a13.5 13.5 0 10-9 0v16.515c0 6.21-5.04 11.25-11.25 11.25H94.5V25.893a4.5 4.5 0 011.026-2.862c.927-1.125 1.98-2.25 3.096-3.132.99-.774 2.709-1.899 4.878-1.899a35.19 35.19 0 0121.33 7.137c4.725 3.672 8.37 8.757 9.657 14.904 2.952.225 5.652 1.45 7.92 3.294 3.438 2.79 5.94 6.975 7.515 11.403 2.466 6.885 3.132 15.66.576 23.13.648.306 1.287.666 1.908 1.08 2.475 1.647 4.356 4.005 5.742 6.786C160.875 91.18 162 98.775 162 108c0 10.269-3.915 17.163-8.883 21.42a24.106 24.106 0 01-9.486 4.995c-.9 5.022-3.42 10.836-7.371 15.768C131.13 156.618 123.174 162 112.5 162c-6.624 0-12.195-2.88-16.344-6.282a4.498 4.498 0 01-1.656-3.483V130.5zM63 58.5a4.5 4.5 0 100 9 4.5 4.5 0 000-9zm0 54a4.5 4.5 0 100 9 4.5 4.5 0 000-9zm54-27a4.501 4.501 0 100-9.002 4.501 4.501 0 000 9.002z" fill="#436BB9"/></svg>