<svg width="180" height="180" fill="none" xmlns="http://www.w3.org/2000/svg"><path d="M112.5 134.999a37.277 37.277 0 0022.5 7.508 37.331 37.331 0 0022.5-7.493v24.345a5.631 5.631 0 01-2.679 4.804 5.633 5.633 0 01-5.496.221l-.675-.412-13.65-9.54-13.65 9.54a5.624 5.624 0 01-8.79-3.825l-.052-.788-.008-24.352v-.008zm31.875-112.47a20.624 20.624 0 0120.588 19.365l.037 1.26.008 39.345a37.714 37.714 0 00-11.25-9.982l-.008-29.363a9.377 9.377 0 00-8.415-9.33l-.96-.045H35.625a9.375 9.375 0 00-9.33 8.415l-.045.96v71.25c0 4.853 3.69 8.85 8.415 9.323l.96.052h66.9a36.39 36.39 0 002.475 3.72v7.53H35.625a20.621 20.621 0 01-20.587-19.372L15 114.404v-71.25a20.625 20.625 0 0119.365-20.587l1.26-.038h108.75zM135 75a29.998 29.998 0 0121.213 51.214 29.998 29.998 0 01-42.426 0A30.001 30.001 0 01135 74.999zM84.375 93.75a5.624 5.624 0 01.765 11.198l-.765.052h-33.75a5.622 5.622 0 01-5.61-5.241 5.625 5.625 0 014.845-5.956l.765-.053h33.75zm45-41.25a5.624 5.624 0 014.362 9.175 5.627 5.627 0 01-3.597 2.023l-.765.052h-78.75a5.624 5.624 0 01-.765-11.197l.765-.053h78.75z" fill="#E4B241"/></svg>