<svg width="140" height="140" fill="none" xmlns="http://www.w3.org/2000/svg"><path d="M70 128.333c32.216 0 58.333-26.116 58.333-58.333S102.216 11.667 70 11.667c-32.217 0-58.334 26.116-58.334 58.333S37.784 128.333 70 128.333z" fill="#00ACC1"/><path d="M70 116.667c25.773 0 46.667-20.894 46.667-46.667 0-25.773-20.894-46.667-46.667-46.667-25.773 0-46.666 20.894-46.666 46.667 0 25.773 20.893 46.667 46.666 46.667z" fill="#EEE"/><path d="M67.084 32.083h5.833V70h-5.834V32.083z" fill="#000"/><path d="M91.247 86.49l-4.74 4.743-18.97-18.97 4.743-4.745 18.967 18.973z" fill="#000"/><path d="M70 75.833a5.833 5.833 0 100-11.666 5.833 5.833 0 000 11.666z" fill="#000"/><path d="M70 72.917a2.917 2.917 0 100-5.834 2.917 2.917 0 000 5.834z" fill="#00ACC1"/></svg>