<svg width="195" height="276" fill="none" xmlns="http://www.w3.org/2000/svg"><g clip-path="url(#clip0)"><path d="M37.88 91.693v5.553h33.677v11.107h5.549V80.586h-5.55v11.107H37.882zm45.889-11.107v27.767h5.548V97.246h32.722v-5.553H89.317V80.586H83.77z" fill="#eee"/><path d="M54.527 97.246v27.766h17.03v-11.106h5.549v27.766h-5.55v-11.106H48.979v-33.32h5.55zm29.242 16.66v27.766h5.548v-11.106h20.7v-33.32h-5.549v27.766h-15.15v-11.106h-5.55z" fill="#eee"/><path d="M131.088 104.23c5.113 0 9.258-4.148 9.258-9.265 0-5.118-4.145-9.266-9.258-9.266-5.114 0-9.259 4.148-9.259 9.266 0 5.117 4.145 9.265 9.259 9.265z" stroke="#eee" stroke-width="5.268"/><path d="M141.037 154.559c-28.573 28.596-74.893 28.604-103.457.018-28.564-28.587-28.556-74.942.018-103.538 28.573-28.596 74.893-28.603 103.457-.017 28.564 28.586 28.556 74.941-.018 103.537z" stroke="#eee" stroke-width="11.208"/><path d="M132.96 146.475c-24.111 24.13-63.196 24.136-87.298.015-24.103-24.122-24.097-63.237.014-87.367 24.111-24.13 63.196-24.136 87.299-.014 24.103 24.121 24.096 63.237-.015 87.366z" stroke="#eee" stroke-width="5.147"/><path d="M156.101 156.115a82.582 82.582 0 01-12.493 12.404l9.993 9.998 20.782 20.795a8.794 8.794 0 0012.443-.002c3.437-3.438 3.438-9.013.002-12.45l-20.782-20.795-9.945-9.95z" fill="#eee"/></g><defs><clipPath id="clip0"><path fill="#fff" d="M0 0h195v276H0z"/></clipPath></defs></svg>