<svg xmlns="http://www.w3.org/2000/svg" width="210mm" height="297mm" viewBox="0 0 210 297"><path d="M40.795 98.67v5.975H77.06v11.952h5.976V86.718H77.06v11.951zm49.418-11.952v29.879h5.975v-11.952h35.24V98.67h-35.24V86.718z" fill="gray"/><path d="M58.722 104.645v29.88h18.34v-11.952h5.975v29.879h-5.976V140.5H52.747v-35.855zm31.491 17.928v29.879h5.975V140.5h22.292v-35.855h-5.975v29.88H96.188v-11.952z" fill="gray"/><circle cx="141.171" cy="102.19" r="9.971" fill="none" stroke="gray" stroke-width="5.268"/><g transform="rotate(-15 96.188 110.621)"><circle cx="-27.991" cy="143.895" r="78.782" transform="scale(-1 1) rotate(30)" fill="none" stroke="gray" stroke-width="11.208"/><circle cx="-27.991" cy="143.895" r="66.478" transform="scale(-1 1) rotate(30)" fill="none" stroke="gray" stroke-width="5.147"/><path d="M150.807 184.648a88.695 88.695 0 01-16.446 9.411l7.61 13.18 15.826 27.413a9.474 9.474 0 1016.41-9.474l-15.827-27.412z" fill="gray"/></g><circle cx="183.306" cy="-25.814" r="78.782" transform="scale(-1 1) rotate(45)" fill="none" stroke="gray" stroke-width="11.208"/><circle cx="183.306" cy="-25.814" r="66.478" transform="scale(-1 1) rotate(45)" fill="none" stroke="gray" stroke-width="5.147"/><path d="M-86.863 160.775l20.144 20.144 1.865-1.865 22.382 22.382-14.175 14.175-22.382-22.382 1.865-1.865-20.144-20.144z" fill="gray" stroke="gray" stroke-width="4.257" stroke-linejoin="round"/><path d="M-203.589 97.825v5.976h36.267v11.952h5.976v-29.88h-5.976v11.952zm49.419-11.952v29.88h5.975V103.8h35.239v-5.976h-35.24V85.873z" fill="gray"/><path d="M-185.661 103.8v29.88h18.339v-11.952h5.976v29.88h-5.976v-11.952h-24.315V103.8zm31.491 17.928v29.88h5.975v-11.952h22.292V103.8h-5.976v29.879h-16.316v-11.952z" fill="gray"/><circle cx="-103.212" cy="101.346" r="9.971" fill="none" stroke="gray" stroke-width="5.268"/></svg>