<svg width="200" height="200" fill="none" xmlns="http://www.w3.org/2000/svg"><path d="M100 12.5c-48.32 0-87.5 39.18-87.5 87.5s39.18 87.5 87.5 87.5 87.5-39.18 87.5-87.5-39.18-87.5-87.5-87.5zm4.355 129.922l.04 6.191c0 .86-.704 1.582-1.563 1.582h-5.547c-.86 0-1.562-.703-1.562-1.562V142.5c-17.344-1.289-25.508-11.172-26.387-21.914a1.565 1.565 0 011.562-1.699h9.024c.762 0 1.426.547 1.543 1.289.996 6.191 5.82 10.82 14.472 11.972v-27.871l-4.824-1.23c-10.215-2.442-19.941-8.809-19.941-22.012 0-14.238 10.82-21.894 24.648-23.242v-6.445c0-.86.703-1.563 1.563-1.563h5.488c.859 0 1.563.703 1.563 1.563v6.386c13.378 1.348 23.418 9.16 24.589 21.328a1.559 1.559 0 01-1.562 1.72h-8.77a1.56 1.56 0 01-1.543-1.348c-.781-5.703-5.351-10.352-12.793-11.368v26.23l4.961 1.153c12.657 3.125 21.27 9.18 21.27 22.735 0 14.707-10.938 22.91-26.231 24.238zM83.32 80.137c0 4.96 3.067 8.808 9.668 11.191.918.371 1.836.664 2.93.977v-24.22c-7.207.919-12.598 4.962-12.598 12.052zm22.754 26.406a27.289 27.289 0 01-1.719-.43v26.114c8.321-.743 14.063-5.313 14.063-12.969 0-5.996-3.106-9.903-12.344-12.715z" fill="#119461"/></svg>