<svg width="124" height="111" fill="none" xmlns="http://www.w3.org/2000/svg"><path d="M36.027 64.374c3.485 0 6.853-.227 10.04-.65V28.529a76.723 76.723 0 00-10.04-.648C16.13 27.88 0 35.25 0 44.342v3.57c0 9.091 16.13 16.462 36.027 16.462zm0 18.378c3.485 0 6.853-.227 10.04-.648V71.787a76.71 76.71 0 01-10.04.652c-17.368 0-31.864-5.616-35.269-13.09C.262 60.437 0 61.565 0 62.72v3.57c0 9.092 16.13 16.462 36.027 16.462zm10.04 8.216v-.802a76.71 76.71 0 01-10.04.652c-17.368 0-31.864-5.616-35.27-13.09C.263 78.816 0 79.943 0 81.098v3.57c0 9.093 16.13 16.463 36.027 16.463 3.979 0 7.806-.296 11.385-.84-.887-1.828-1.345-3.756-1.345-5.753v-3.57zM87.973 0C68.076 0 51.946 7.37 51.946 16.462v3.57c0 9.091 16.13 16.461 36.027 16.461 19.897 0 36.027-7.37 36.027-16.461v-3.57C124 7.37 107.87 0 87.973 0z" fill="#D8AC13"/><path d="M87.973 44.559c-17.368 0-31.864-5.616-35.27-13.09-.495 1.088-.757 2.215-.757 3.371v3.57c0 9.092 16.13 16.462 36.027 16.462 19.897 0 36.027-7.37 36.027-16.462v-3.57c0-1.156-.262-2.283-.758-3.371-3.405 7.474-17.901 13.09-35.269 13.09z" fill="#D8AC13"/><path d="M87.973 62.938c-17.368 0-31.864-5.616-35.27-13.09-.495 1.088-.757 2.215-.757 3.371v3.57c0 9.092 16.13 16.462 36.027 16.462 19.897 0 36.027-7.37 36.027-16.462v-3.57c0-1.156-.262-2.283-.758-3.371-3.405 7.474-17.901 13.09-35.269 13.09z" fill="#D8AC13"/><path d="M87.973 82.308c-17.368 0-31.864-5.616-35.27-13.09-.495 1.088-.757 2.215-.757 3.371v3.57c0 9.092 16.13 16.462 36.027 16.462 19.897 0 36.027-7.37 36.027-16.462v-3.57c0-1.156-.262-2.283-.758-3.371-3.405 7.474-17.901 13.09-35.269 13.09z" fill="#D8AC13"/><path d="M87.973 100.687c-17.368 0-31.864-5.616-35.27-13.09-.495 1.089-.757 2.216-.757 3.371v3.57c0 9.092 16.13 16.462 36.027 16.462C107.87 111 124 103.63 124 94.538v-3.57c0-1.156-.262-2.283-.758-3.371-3.405 7.474-17.901 13.09-35.269 13.09z" fill="#D8AC13"/></svg>