<svg xmlns="http://www.w3.org/2000/svg" width="512" height="512" viewBox="0 0 31 31"><path d="M13.916 14.824c0 .554-.423.91-1.137.91h-.562v-1.747c.104-.019.301-.047.647-.047.657.011 1.052.302 1.052.884zm17.083.676a4.48 4.48 0 01-1.317 3.182l-1.904 1.904v2.691c0 2.479-2.02 4.5-4.5 4.5h-2.691l-1.902 1.904C17.833 30.531 16.703 31 15.5 31s-2.333-.469-3.184-1.32l-1.901-1.9H7.723a4.48 4.48 0 01-3.183-1.317 4.47 4.47 0 01-1.317-3.183v-2.694l-1.904-1.901c-.85-.851-1.317-1.98-1.317-3.183s.47-2.333 1.317-3.182l1.904-1.903V7.725c0-2.481 2.02-4.5 4.5-4.5h2.691l1.904-1.905C13.167.47 14.296 0 15.5 0s2.333.469 3.184 1.32l1.901 1.901h2.692c1.201 0 2.332.468 3.182 1.317a4.468 4.468 0 011.318 3.183v2.692l1.904 1.904a4.48 4.48 0 011.318 3.183zM9.723 12.928H5.857v6.324h1.436v-2.543h2.271v-1.164H7.293V14.1h2.432v-1.173l-.002.001zm5.853 6.324c-.122-.244-.318-1.068-.516-1.782-.16-.581-.403-1.005-.846-1.183v-.027c.544-.197 1.117-.75 1.117-1.558 0-.582-.207-1.023-.582-1.323-.45-.356-1.107-.498-2.046-.498-.761 0-1.445.057-1.905.132v6.239h1.417v-2.486h.433c.582.01.854.226 1.022 1.015.188.778.338 1.295.44 1.473l1.466-.002zm4.82-1.172h-2.602v-1.502h2.328v-1.164h-2.328V14.1h2.471v-1.173H16.36v6.324h4.036V18.08zm5.008 0h-2.6v-1.502h2.327v-1.164h-2.327V14.1h2.469v-1.173H21.37v6.324h4.034V18.08z" fill="#e60000" data-original="#000000" xmlns="http://www.w3.org/2000/svg"/></svg>