<svg width="140" height="140" fill="none" xmlns="http://www.w3.org/2000/svg"><path d="M39.565 54.783H27.391a3.045 3.045 0 00-3.043 3.043v24.348a3.045 3.045 0 006.087 0V60.869h9.13a3.045 3.045 0 000-6.087z" fill="#1CE4FF"/><path d="M33.478 66.957h-6.087a3.044 3.044 0 000 6.087h6.087a3.045 3.045 0 000-6.087z" fill="#1CE4FF"/><path d="M70 0C31.403 0 0 31.403 0 70s31.403 70 70 70 70-31.403 70-70S108.597 0 70 0zm0 133.913c-35.244 0-63.913-28.67-63.913-63.913C6.087 34.756 34.757 6.087 70 6.087c35.243 0 63.913 28.67 63.913 63.913 0 35.243-28.67 63.913-63.913 63.913z" fill="#1CE4FF"/><path d="M110.35 37.66c-9.891-12.326-24.597-19.4-40.35-19.4-15.754 0-30.46 7.074-40.35 19.4a3.04 3.04 0 00.468 4.279 3.032 3.032 0 004.273-.469C43.126 30.587 56.103 24.347 70 24.347c13.896 0 26.874 6.24 35.602 17.123a3.041 3.041 0 002.374 1.138c.676 0 1.346-.219 1.905-.67a3.04 3.04 0 00.469-4.278zm-2.952 63.609c-1.205-1.15-3.141-1.102-4.297.116-8.735 9.197-20.489 14.267-33.101 14.267-12.612 0-24.366-5.07-33.095-14.267-1.15-1.23-3.086-1.266-4.297-.116a3.036 3.036 0 00-.116 4.304C42.384 116 55.702 121.74 70 121.74c14.298 0 27.617-5.74 37.514-16.167a3.042 3.042 0 00-.116-4.304zM59.007 72.964c4.48-.578 7.95-4.419 7.95-9.051 0-5.034-4.097-9.13-9.131-9.13h-6.087a3.045 3.045 0 00-3.044 3.043v24.348a3.045 3.045 0 006.087 0v-4.827l6.976 6.982a3.06 3.06 0 002.155.888c.78 0 1.558-.298 2.149-.894a3.046 3.046 0 000-4.304l-7.055-7.055zm-4.224-6.007V60.87h3.043a3.049 3.049 0 013.044 3.043 3.05 3.05 0 01-3.044 3.044h-3.044zM88.26 79.13h-9.13V60.87h9.13a3.045 3.045 0 000-6.087H76.087a3.045 3.045 0 00-3.043 3.043v24.348a3.045 3.045 0 003.043 3.043h12.175a3.045 3.045 0 000-6.087z" fill="#1CE4FF"/><path d="M82.174 66.957h-6.087a3.044 3.044 0 000 6.087h6.087a3.045 3.045 0 000-6.087zm30.435 12.173h-9.131V60.87h9.131a3.044 3.044 0 000-6.087h-12.174a3.045 3.045 0 00-3.044 3.043v24.348a3.045 3.045 0 003.044 3.043h12.174a3.044 3.044 0 000-6.087z" fill="#1CE4FF"/><path d="M106.522 66.957h-6.087a3.045 3.045 0 000 6.087h6.087a3.044 3.044 0 000-6.087z" fill="#1CE4FF"/></svg>