<svg width="200" height="200" fill="none" xmlns="http://www.w3.org/2000/svg"><path d="M31.25 174.609a6.243 6.243 0 006.25 6.25h55.86v-73.437H31.25v67.187zm75.391 6.25H162.5a6.243 6.243 0 006.25-6.25v-67.187h-62.109v73.437zm65.234-120.312h-28.828a26.887 26.887 0 004.219-14.453c0-14.864-12.09-26.953-26.954-26.953-8.085 0-15.371 3.593-20.312 9.257-4.941-5.664-12.227-9.257-20.313-9.257-14.863 0-26.953 12.09-26.953 26.953a26.717 26.717 0 004.22 14.453h-28.83a6.243 6.243 0 00-6.25 6.25V94.14h71.484V60.547h13.282V94.14h71.484V66.797a6.243 6.243 0 00-6.25-6.25zm-78.516-.781H79.688c-7.54 0-13.672-6.133-13.672-13.672 0-7.54 6.132-13.672 13.671-13.672 7.54 0 13.672 6.133 13.672 13.672v13.672zm26.953 0h-13.671V46.094c0-7.54 6.132-13.672 13.671-13.672 7.54 0 13.672 6.133 13.672 13.672 0 7.539-6.132 13.672-13.672 13.672z" fill="#E99D0A"/></svg>