<svg width="150" height="150" fill="none" xmlns="http://www.w3.org/2000/svg"><g clip-path="url(#clip0)"><path d="M95.687 54.313c17.504 17.523 17.264 45.615.105 62.869a3.54 3.54 0 01-.105.108l-19.688 19.687c-17.364 17.365-45.615 17.362-62.976 0-17.365-17.361-17.365-45.615 0-62.976l10.87-10.871c2.883-2.883 7.848-.967 7.997 3.107a53.983 53.983 0 002.839 15.446 4.715 4.715 0 01-1.108 4.867l-3.835 3.834c-8.21 8.21-8.468 21.58-.338 29.871 8.21 8.373 21.705 8.422 29.978.149l19.688-19.684c8.259-8.26 8.224-21.609 0-29.833a21.944 21.944 0 00-3.03-2.51 4.699 4.699 0 01-2.035-3.694 11.67 11.67 0 013.427-8.732l6.168-6.169c1.617-1.617 4.155-1.816 6.03-.507a44.67 44.67 0 016.013 5.038zm41.289-41.291C119.615-4.34 91.364-4.342 74 13.022L54.312 32.709a3.534 3.534 0 00-.105.109c-17.158 17.253-17.399 45.346.105 62.868a44.689 44.689 0 006.012 5.038c1.876 1.309 4.413 1.11 6.03-.507l6.169-6.169a11.67 11.67 0 003.427-8.732 4.698 4.698 0 00-2.035-3.693 21.944 21.944 0 01-3.03-2.51c-8.224-8.225-8.259-21.575 0-29.834l19.688-19.684c8.273-8.273 21.767-8.224 29.978.15 8.13 8.29 7.872 21.66-.339 29.87l-3.834 3.834a4.716 4.716 0 00-1.108 4.867 53.989 53.989 0 012.839 15.446c.149 4.074 5.113 5.99 7.996 3.107l10.871-10.87c17.365-17.362 17.365-45.616 0-62.977z" fill="#405DE6"/></g><defs><clipPath id="clip0"><path fill="#fff" d="M0 0h150v150H0z"/></clipPath></defs></svg>