<svg width="512" height="512" fill="none" xmlns="http://www.w3.org/2000/svg"><g clip-path="url(#clip0)" fill="#0D967D"><path d="M306.19 425.404H134.983a83.283 83.283 0 011.385 15.021c0 5.13-.492 10.145-1.385 15.02h171.208a52.2 52.2 0 01-.001-30.041zm118.668-144.245h-92.597c.638 3.26.981 6.624.981 10.068a52.07 52.07 0 01-3.968 19.973h95.584c31.485 0 57.101 25.616 57.101 57.102 0 31.486-25.616 57.101-57.101 57.101h-18.37a52.166 52.166 0 012.207 15.021c0 5.22-.778 10.26-2.207 15.02h18.37c48.05 0 87.142-39.092 87.142-87.143 0-48.05-39.092-87.142-87.142-87.142zm-195.346 0h-89.721c-18.182 0-32.974-14.793-32.974-32.974 0-18.167 14.779-32.948 32.946-32.948h252.93c-8.552-9.28-17.448-19.439-25.977-30.041H139.763c-34.731 0-62.987 28.257-62.987 62.989 0 34.746 28.269 63.015 63.015 63.015h92.708a52.074 52.074 0 01-3.968-19.973c0-3.443.343-6.808.981-10.068zM106.323 440.538c.088-29.35-23.643-53.215-53.004-53.303-29.36-.088-53.234 23.634-53.322 52.984-.088 29.351 23.643 53.215 53.004 53.303 29.36.088 53.234-23.634 53.322-52.984zM349.267 90.454c0 21.25 25.22 61.073 67.46 106.528a6.213 6.213 0 004.586 2.002c1.018 0 2.967-.26 4.587-2.003 42.241-45.454 67.459-85.277 67.459-106.528 0-39.713-32.319-72.022-72.045-72.022-39.728.001-72.047 32.31-72.047 72.023zm72.047-11.687c8.393 0 14.608 6.86 14.971 14.971.363 8.085-7.14 14.972-14.971 14.972-8.394 0-14.608-6.86-14.972-14.972-.361-8.086 7.141-14.971 14.972-14.971zm-42.66 361.658c0-12.304-10.01-22.315-22.314-22.315s-22.315 10.011-22.315 22.315c0 12.304 10.011 22.313 22.315 22.313 12.304 0 22.314-10.009 22.314-22.313z"/><path d="M303.201 291.228c0-12.304-10.011-22.314-22.314-22.314-12.304 0-22.314 10.01-22.314 22.314 0 12.303 10.01 22.314 22.314 22.314 12.303 0 22.314-10.011 22.314-22.314z"/></g><defs><clipPath id="clip0"><path fill="#fff" d="M0 0h512v512H0z"/></clipPath></defs></svg>