<svg xmlns="http://www.w3.org/2000/svg" width="2000" height="2000"><path fill-rule="evenodd" clip-rule="evenodd" fill="#154A8F" d="M1744.293 1369.225h-112.449c-18.538 0-33.566 15.023-33.566 33.556v251.664c0 18.532 15.028 33.556 33.566 33.556h112.449c18.539 0 33.566-15.023 33.566-33.556V1402.78c0-18.532-15.027-33.555-33.566-33.555zm-1361.137 0H270.707c-18.539 0-33.567 15.023-33.567 33.556v251.664c0 18.532 15.028 33.556 33.567 33.556h112.449c18.539 0 33.567-15.023 33.567-33.556V1402.78c0-18.532-15.029-33.555-33.567-33.555z"/><path fill-rule="evenodd" clip-rule="evenodd" fill="#FFF" d="M230.427 1448.08h-6.713a6.711 6.711 0 00-6.713 6.711V1612.5a6.713 6.713 0 006.713 6.712h6.713a6.712 6.712 0 006.713-6.712v-157.709a6.712 6.712 0 00-6.713-6.711zm1560.86 0h-6.714a6.712 6.712 0 00-6.714 6.711V1612.5a6.713 6.713 0 006.714 6.712h6.714a6.713 6.713 0 006.713-6.712v-157.709a6.712 6.712 0 00-6.713-6.711z"/><path fill-rule="evenodd" clip-rule="evenodd" fill="#4870B7" d="M1111.557 961.488V745.104H905.789v216.384l-442.09 436.243v263.425h1092.613v-263.425z"/><path fill-rule="evenodd" clip-rule="evenodd" fill="#164991" d="M1124.984 1218.226H890.016c-18.538 0-33.566 15.023-33.566 33.556v234.887c0 18.532 15.028 33.556 33.566 33.556h234.969c18.538 0 33.566-15.023 33.566-33.556v-234.887c0-18.533-15.029-33.556-33.567-33.556z"/><path fill-rule="evenodd" clip-rule="evenodd" fill="#FFF" d="M574.487 611.979l-35.245 133.105h33.566l43.637-133.105 110.771-79.049h181.261v-29.431H703.72l-129.233 108.48zm864.347 0L1309.602 503.5h-204.758v29.431h181.262l110.771 79.049 43.637 133.105h33.567l-35.247-133.106z"/><path fill-rule="evenodd" clip-rule="evenodd" fill="#4870B7" d="M1514.359 584.031l-281.961-211.025H784.28L498.962 587.387l-23.497 158.455h77.204l41.958-133.289 124.198-93.954h186.779v227.243h205.545V521.021h191.578l117.646 93.21 40.279 131.611h77.204z"/></svg>