<svg width="512" height="512" fill="none" xmlns="http://www.w3.org/2000/svg"><g clip-path="url(#clip0)"><path d="M15 512a15.003 15.003 0 01-15-15V79.267a14.999 14.999 0 0113.018-14.868l482-64.267a14.99 14.99 0 0111.863 3.582A15.004 15.004 0 01512 15.001v417.733a14.999 14.999 0 01-13.018 14.868l-482 64.267c-.661.088-1.323.131-1.982.131z" fill="#0061A8"/><path d="M506.881 3.715A14.99 14.99 0 00495.018.133L256 32.001v447.998l242.982-32.398A15 15 0 00512 432.733V15.001a15 15 0 00-5.119-11.286z" fill="#1F4B7F"/><path d="M183.7 238.867h56.233a15 15 0 0014.796-12.534l16.067-96.399c1.525-9.143-5.54-17.466-14.796-17.466h-56.233a15 15 0 00-14.796 12.534l-16.066 96.399c-1.525 9.144 5.539 17.466 14.795 17.466zm28.774-96.4h25.819l-11.067 66.399h-25.819l11.067-66.399zm-21.022 130.667h-56.233a15 15 0 00-14.796 12.534l-16.067 96.399c-1.525 9.143 5.54 17.466 14.796 17.466h56.233a15 15 0 0014.796-12.534l16.066-96.399c1.525-9.144-5.539-17.466-14.795-17.466zm-28.773 96.4H136.86l11.067-66.399h25.819l-11.067 66.399z" fill="#F5FAFA"/><path d="M384.549 112.467h-.016a15 15 0 00-14.796 12.534L353.671 221.4c-1.524 9.144 5.54 17.466 14.796 17.466H424.7a15 15 0 0014.796-12.537s3.245-19.49 6.828-40.95c6.349-38.155-23.085-72.912-61.775-72.912zm32.184 67.98c-1.784 10.68-3.483 20.873-4.741 28.42h-25.818l10.667-64.002c13.311 5.413 22.539 19.67 19.892 35.582z" fill="#E1EBF0"/><path d="M142.263 226.332l8.033-48.199c1.524-9.144-5.54-17.466-14.796-17.466h-30.493l3.034-18.2h35.493c8.284 0 15-6.716 15-15 0-8.284-6.716-15-15-15h-48.2a15 15 0 00-14.796 12.534l-8.034 48.2c-1.525 9.143 5.54 17.466 14.796 17.466h30.493l-3.033 18.199H79.267c-8.284 0-15 6.716-15 15 0 8.284 6.716 15 15 15h48.2c7.332.001 13.59-5.3 14.796-12.534zm164.122 47.006c-8.172-1.357-15.9 4.158-17.262 12.33l-13.978 83.865h-25.819l13.155-78.934c1.362-8.172-4.158-15.899-12.33-17.262-8.172-1.357-15.9 4.158-17.262 12.33l-16.066 96.399c-1.524 9.144 5.54 17.466 14.796 17.466h56.233a15 15 0 0014.796-12.534l16.066-96.399c1.363-8.171-4.157-15.898-12.329-17.261z" fill="#F5FAFA"/><path d="M320.267 208.867h-6.393l13.156-78.934c1.362-8.171-4.158-15.899-12.33-17.262-8.167-1.357-15.9 4.158-17.262 12.33L281.371 221.4c-1.525 9.143 5.54 17.466 14.796 17.466h24.1c8.284 0 15-6.716 15-15 0-8.284-6.716-14.999-15-14.999zm80.052 64.267h-48.2c-8.284 0-15 6.716-15 15 0 8.284 6.716 15 15 15h6.393l-13.156 78.934c-1.362 8.171 4.158 15.899 12.33 17.262 11.647 1.935 16.563-8.135 17.262-12.33l13.978-83.865h11.393c8.284 0 15-6.716 15-15 0-8.284-6.716-15.001-15-15.001zM256 112.467v106.239l14.796-88.774c1.524-9.142-5.54-17.465-14.796-17.465zm6.481 178.133c1.001-6.007-1.725-11.765-6.481-14.94v53.829l6.481-38.889zm40.167 96.399l16.066-96.399c1.362-8.172-4.158-15.899-12.33-17.262-8.172-1.357-15.9 4.158-17.262 12.33l-13.978 83.865H256v30h31.853c7.332.001 13.59-5.3 14.795-12.534z" fill="#E1EBF0"/></g><defs><clipPath id="clip0"><path fill="#fff" d="M0 0h512v512H0z"/></clipPath></defs></svg>