<svg width="150" height="150" fill="none" xmlns="http://www.w3.org/2000/svg"><path d="M131.25 31.25c-6.938-2.188-14.562-3.125-21.875-3.125-12.188 0-25.313 2.5-34.375 9.375-9.063-6.875-22.188-9.375-34.375-9.375-12.188 0-25.313 2.5-34.375 9.375v91.562c0 1.563 1.563 3.126 3.125 3.126.625 0 .938-.313 1.563-.313C19.374 127.812 31.561 125 40.624 125c12.188 0 25.313 2.5 34.375 9.375 8.438-5.313 23.75-9.375 34.375-9.375 10.313 0 20.937 1.875 29.687 6.562.626.313.938.313 1.563.313 1.563 0 3.125-1.563 3.125-3.125V37.5c-3.75-2.813-7.812-4.688-12.5-6.25zm0 84.375c-6.875-2.187-14.375-3.125-21.875-3.125-10.625 0-25.938 4.062-34.375 9.375V50c8.438-5.313 23.75-9.375 34.375-9.375 7.5 0 15 .938 21.875 3.125v71.875z" fill="#6036B9"/><path d="M109.375 65.625c5.5 0 10.813.563 15.625 1.625v-9.5c-4.938-.938-10.25-1.5-15.625-1.5-10.625 0-20.25 1.813-28.125 5.188v10.374c7.063-4 16.875-6.187 28.125-6.187zM81.25 78.063v10.374c7.063-4 16.875-6.187 28.125-6.187 5.5 0 10.813.563 15.625 1.625v-9.5c-4.938-.938-10.25-1.5-15.625-1.5-10.625 0-20.25 1.875-28.125 5.188zm28.125 11.5c-10.625 0-20.25 1.812-28.125 5.187v10.375c7.063-4 16.875-6.188 28.125-6.188 5.5 0 10.813.563 15.625 1.626v-9.5c-4.938-1-10.25-1.5-15.625-1.5z" fill="#6036B9"/></svg>