<svg width="140" height="140" fill="none" xmlns="http://www.w3.org/2000/svg"><path d="M0 46.667A46.666 46.666 0 0146.667 0h46.666A46.668 46.668 0 01140 46.667v46.666a46.67 46.67 0 01-13.668 32.999A46.67 46.67 0 0193.333 140H46.667A46.669 46.669 0 010 93.333V46.667z" fill="#3984FD"/><path d="M29.166 52.5A5.834 5.834 0 0135 46.667h35a17.5 17.5 0 0117.5 17.5V87.5a5.833 5.833 0 01-5.834 5.833h-35a17.5 17.5 0 01-17.5-17.5V52.5zm61.25 16.053a11.667 11.667 0 012.888-7.688l9.858-11.27c2.666-3.033 7.671-1.155 7.671 2.882v35.046c0 4.043-5.005 5.921-7.665 2.882l-9.864-11.27a11.667 11.667 0 01-2.888-7.683v-2.905.006z" fill="#fff"/></svg>