<svg width="140" height="140" viewBox="0 0 140 140" fill="none" xmlns="http://www.w3.org/2000/svg">
<path d="M39.5652 54.7826H27.3912C25.7112 54.7826 24.3477 56.1461 24.3477 57.8261V82.1739C24.3477 83.8539 25.7112 85.2174 27.3912 85.2174C29.0712 85.2174 30.4348 83.8539 30.4348 82.1739V60.8694H39.5652C41.2452 60.8694 42.6088 59.5059 42.6088 57.8259C42.6088 56.1459 41.2452 54.7826 39.5652 54.7826Z" fill="#1CE4FF"/>
<path d="M33.4781 66.9566H27.3912C25.7112 66.9566 24.3477 68.3202 24.3477 70.0002C24.3477 71.6802 25.7112 73.0434 27.3912 73.0434H33.4781C35.1581 73.0434 36.5217 71.6799 36.5217 69.9999C36.5217 68.3199 35.1581 66.9566 33.4781 66.9566Z" fill="#1CE4FF"/>
<path d="M69.9998 0C31.4027 0 0 31.4027 0 69.9998C0 108.597 31.4027 140 69.9998 140C108.597 140 140 108.597 140 69.9998C140 31.4027 108.597 0 69.9998 0ZM69.9998 133.913C34.7564 133.913 6.08686 105.243 6.08686 69.9998C6.08686 34.7564 34.7564 6.08686 69.9998 6.08686C105.243 6.08686 133.913 34.7564 133.913 69.9998C133.913 105.243 105.243 133.913 69.9998 133.913Z" fill="#1CE4FF"/>
<path d="M110.35 37.6599C100.459 25.3338 85.7528 18.2609 69.9997 18.2609C54.2465 18.2609 39.5405 25.3338 29.6491 37.6599C28.596 38.9687 28.8032 40.8861 30.1179 41.9389C31.4267 42.9921 33.3441 42.7849 34.391 41.4701C43.1257 30.5867 56.1031 24.3474 69.9997 24.3474C83.8962 24.3474 96.8736 30.5867 105.602 41.4701C106.205 42.2188 107.087 42.6083 107.976 42.6083C108.652 42.6083 109.322 42.3892 109.881 41.9386C111.196 40.8861 111.403 38.9687 110.35 37.6599Z" fill="#1CE4FF"/>
<path d="M107.398 101.269C106.193 100.119 104.257 100.167 103.101 101.385C94.3661 110.582 82.6121 115.652 69.9998 115.652C57.3876 115.652 45.6339 110.582 36.9052 101.385C35.7547 100.155 33.8191 100.119 32.6079 101.269C31.3784 102.426 31.3356 104.355 32.4923 105.573C42.3837 116 55.7019 121.74 70.0001 121.74C84.2984 121.74 97.6165 116 107.514 105.573C108.67 104.355 108.622 102.426 107.398 101.269Z" fill="#1CE4FF"/>
<path d="M59.0067 72.9644C63.4866 72.386 66.9562 68.5453 66.9562 63.913C66.9562 58.879 62.8597 54.7826 57.8257 54.7826H51.7389C50.0589 54.7826 48.6953 56.1461 48.6953 57.8261V69.9756C48.6953 69.9879 48.6953 70.0061 48.6953 70.0181V82.1739C48.6953 83.8539 50.0589 85.2174 51.7389 85.2174C53.4189 85.2174 54.7825 83.8539 54.7825 82.1739V77.347L61.7581 84.3286C62.3547 84.919 63.1337 85.2174 63.9129 85.2174C64.6921 85.2174 65.471 84.9193 66.0617 84.3227C67.2486 83.1357 67.2486 81.206 66.0617 80.0191L59.0067 72.9644ZM54.7825 66.9566V60.8697H57.826C59.5 60.8697 60.8696 62.2333 60.8696 63.9133C60.8696 65.5933 59.5 66.9569 57.826 66.9569H54.7825V66.9566Z" fill="#1CE4FF"/>
<path d="M88.2606 79.1303H79.1301V60.8694H88.2606C89.9406 60.8694 91.3041 59.5059 91.3041 57.8259C91.3041 56.1459 89.9406 54.7826 88.2606 54.7826H76.0865C74.4065 54.7826 73.043 56.1461 73.043 57.8261V82.1739C73.043 83.8539 74.4065 85.2174 76.0865 85.2174H88.2606C89.9406 85.2174 91.3041 83.8539 91.3041 82.1739C91.3041 80.4939 89.9406 79.1303 88.2606 79.1303Z" fill="#1CE4FF"/>
<path d="M82.1739 66.9566H76.087C74.407 66.9566 73.0435 68.3202 73.0435 70.0002C73.0435 71.6802 74.407 73.0434 76.087 73.0434H82.1739C83.8539 73.0434 85.2174 71.6799 85.2174 69.9999C85.2174 68.3199 83.8539 66.9566 82.1739 66.9566Z" fill="#1CE4FF"/>
<path d="M112.609 79.1303H103.478V60.8694H112.609C114.289 60.8694 115.652 59.5059 115.652 57.8259C115.652 56.1459 114.289 54.7826 112.609 54.7826H100.435C98.7547 54.7826 97.3911 56.1461 97.3911 57.8261V82.1739C97.3911 83.8539 98.7547 85.2174 100.435 85.2174H112.609C114.289 85.2174 115.652 83.8539 115.652 82.1739C115.652 80.4939 114.289 79.1303 112.609 79.1303Z" fill="#1CE4FF"/>
<path d="M106.522 66.9566H100.435C98.7547 66.9566 97.3911 68.3202 97.3911 70.0002C97.3911 71.6802 98.7547 73.0434 100.435 73.0434H106.522C108.202 73.0434 109.565 71.6799 109.565 69.9999C109.565 68.3199 108.202 66.9566 106.522 66.9566Z" fill="#1CE4FF"/>
</svg>
