<svg width="140" height="140" viewBox="0 0 140 140" fill="none" xmlns="http://www.w3.org/2000/svg">
<path d="M0 46.6667C0 34.2899 4.91665 22.42 13.6684 13.6684C22.42 4.91665 34.2899 0 46.6667 0L93.3333 0C105.71 0 117.58 4.91665 126.332 13.6684C135.083 22.42 140 34.2899 140 46.6667V93.3333C140 105.71 135.083 117.58 126.332 126.332C117.58 135.083 105.71 140 93.3333 140H46.6667C34.2899 140 22.42 135.083 13.6684 126.332C4.91665 117.58 0 105.71 0 93.3333V46.6667Z" fill="#3984FD"/>
<path d="M29.1665 52.5C29.1665 50.9529 29.7811 49.4692 30.875 48.3752C31.969 47.2812 33.4527 46.6667 34.9998 46.6667H69.9998C74.6411 46.6667 79.0923 48.5104 82.3742 51.7923C85.6561 55.0742 87.4998 59.5254 87.4998 64.1667V87.5C87.4998 89.0471 86.8853 90.5308 85.7913 91.6248C84.6973 92.7187 83.2136 93.3333 81.6665 93.3333H46.6665C42.0252 93.3333 37.574 91.4896 34.2921 88.2077C31.0102 84.9258 29.1665 80.4746 29.1665 75.8333V52.5Z" fill="white"/>
<path d="M90.4165 68.5532C90.4154 65.7251 91.4415 62.9929 93.304 60.8648L103.162 49.5948C105.828 46.5615 110.833 48.4398 110.833 52.4765V87.5232C110.833 91.5657 105.828 93.444 103.168 90.4048L93.304 79.1348C91.4428 77.0082 90.4168 74.2784 90.4165 71.4523V68.5473V68.5532Z" fill="white"/>
</svg>
